<?xml version="1.0" encoding="UTF-8" standalone="no"?><!DOCTYPE svg PUBLIC "-//W3C//DTD SVG 1.1//EN" "http://www.w3.org/Graphics/SVG/1.1/DTD/svg11.dtd"><!-- Generated by graphviz version 2.40.1 (20161225.0304)
 --><!-- Title: company Pages: 1 --><svg xmlns="http://www.w3.org/2000/svg" xmlns:xlink="http://www.w3.org/1999/xlink" width="319pt" height="457pt" viewBox="0.00 0.00 318.74 457.40">
<g id="graph0" class="graph" transform="scale(1 1) rotate(0) translate(4 453.4)">
<title>company</title>
<polygon fill="#ffffff" stroke="transparent" points="-4,4 -4,-453.4 314.7399,-453.4 314.7399,4 -4,4"/>
<!-- company -->
<g id="node1" class="node">
<title>company</title>
<polygon fill="none" stroke="#000000" points="162,-.5 162,-74.9 291.4966,-74.9 291.4966,-.5 162,-.5"/>
<text text-anchor="middle" x="226.7483" y="-58.3" font-family="Times,serif" font-size="14.00" fill="#000000">company</text>
<polyline fill="none" stroke="#000000" points="162,-50.1 291.4966,-50.1 "/>
<text text-anchor="start" x="170" y="-33.5" font-family="Times,serif" font-size="14.00" fill="#000000">name : varchar(255)</text>
<polyline fill="none" stroke="#000000" points="162,-25.3 291.4966,-25.3 "/>
<text text-anchor="start" x="170" y="-8.7" font-family="Times,serif" font-size="14.00" fill="#000000">id : integer</text>
</g>
<!-- pass_in_trip -->
<g id="node2" class="node">
<title>pass_in_trip</title>
<polygon fill="none" stroke="#000000" points="48.1427,-340.9 48.1427,-448.9 173.3539,-448.9 173.3539,-340.9 48.1427,-340.9"/>
<text text-anchor="middle" x="110.7483" y="-432.3" font-family="Times,serif" font-size="14.00" fill="#000000">pass_in_trip</text>
<polyline fill="none" stroke="#000000" points="48.1427,-424.1 173.3539,-424.1 "/>
<text text-anchor="start" x="56.1427" y="-407.5" font-family="Times,serif" font-size="14.00" fill="#000000">trip : integer</text>
<text text-anchor="start" x="56.1427" y="-390.7" font-family="Times,serif" font-size="14.00" fill="#000000"> passenger : integer</text>
<text text-anchor="start" x="56.1427" y="-373.9" font-family="Times,serif" font-size="14.00" fill="#000000"> place : varchar(10)</text>
<polyline fill="none" stroke="#000000" points="48.1427,-365.7 173.3539,-365.7 "/>
<text text-anchor="start" x="56.1427" y="-349.1" font-family="Times,serif" font-size="14.00" fill="#000000">id : integer</text>
</g>
<!-- passenger -->
<g id="node3" class="node">
<title>passenger</title>
<polygon fill="none" stroke="#000000" points="0,-170.7 0,-245.1 129.4966,-245.1 129.4966,-170.7 0,-170.7"/>
<text text-anchor="middle" x="64.7483" y="-228.5" font-family="Times,serif" font-size="14.00" fill="#000000">passenger</text>
<polyline fill="none" stroke="#000000" points="0,-220.3 129.4966,-220.3 "/>
<text text-anchor="start" x="8" y="-203.7" font-family="Times,serif" font-size="14.00" fill="#000000">name : varchar(255)</text>
<polyline fill="none" stroke="#000000" points="0,-195.5 129.4966,-195.5 "/>
<text text-anchor="start" x="8" y="-178.9" font-family="Times,serif" font-size="14.00" fill="#000000">id : integer</text>
</g>
<!-- pass_in_trip&#45;&gt;passenger -->
<g id="edge1" class="edge">
<title>pass_in_trip-&gt;passenger</title>
<path fill="none" stroke="#595959" d="M88.8197,-340.8119C88.8197,-340.8119 88.8197,-255.2718 88.8197,-255.2718"/>
<polygon fill="#595959" stroke="#595959" points="92.3197,-255.2717 88.8197,-245.2718 85.3197,-255.2718 92.3197,-255.2717"/>
<text text-anchor="middle" x="99.7357" y="-309.8" font-family="Times,serif" font-size="14.00" fill="#000000">passenger:id</text>
</g>
<!-- trip -->
<g id="node4" class="node">
<title>trip</title>
<polygon fill="none" stroke="#000000" points="147.8054,-128.7 147.8054,-287.1 305.6912,-287.1 305.6912,-128.7 147.8054,-128.7"/>
<text text-anchor="middle" x="226.7483" y="-270.5" font-family="Times,serif" font-size="14.00" fill="#000000">trip</text>
<polyline fill="none" stroke="#000000" points="147.8054,-262.3 305.6912,-262.3 "/>
<text text-anchor="start" x="155.8054" y="-245.7" font-family="Times,serif" font-size="14.00" fill="#000000">company_id : integer</text>
<text text-anchor="start" x="155.8054" y="-228.9" font-family="Times,serif" font-size="14.00" fill="#000000"> plane : varchar(50)</text>
<text text-anchor="start" x="155.8054" y="-212.1" font-family="Times,serif" font-size="14.00" fill="#000000"> town_from : varchar(50)</text>
<text text-anchor="start" x="155.8054" y="-195.3" font-family="Times,serif" font-size="14.00" fill="#000000"> town_to : varchar(50)</text>
<text text-anchor="start" x="155.8054" y="-178.5" font-family="Times,serif" font-size="14.00" fill="#000000"> time_out : timestamp</text>
<text text-anchor="start" x="155.8054" y="-161.7" font-family="Times,serif" font-size="14.00" fill="#000000"> time_in : timestamp</text>
<polyline fill="none" stroke="#000000" points="147.8054,-153.5 305.6912,-153.5 "/>
<text text-anchor="start" x="155.8054" y="-136.9" font-family="Times,serif" font-size="14.00" fill="#000000">id : integer</text>
</g>
<!-- pass_in_trip&#45;&gt;trip -->
<g id="edge2" class="edge">
<title>pass_in_trip-&gt;trip</title>
<path fill="none" stroke="#595959" d="M160.5797,-340.8119C160.5797,-340.8119 160.5797,-297.2578 160.5797,-297.2578"/>
<polygon fill="#595959" stroke="#595959" points="164.0797,-297.2578 160.5796,-287.2578 157.0797,-297.2578 164.0797,-297.2578"/>
<text text-anchor="middle" x="208.8598" y="-309.8" font-family="Times,serif" font-size="14.00" fill="#000000">trip:id</text>
</g>
<!-- trip&#45;&gt;company -->
<g id="edge3" class="edge">
<title>trip-&gt;company</title>
<path fill="none" stroke="#595959" d="M226.7483,-128.2816C226.7483,-128.2816 226.7483,-85.2206 226.7483,-85.2206"/>
<polygon fill="#595959" stroke="#595959" points="230.2484,-85.2206 226.7483,-75.2206 223.2484,-85.2207 230.2484,-85.2206"/>
<text text-anchor="middle" x="268.7441" y="-97.6" font-family="Times,serif" font-size="14.00" fill="#000000">company_id:id</text>
</g>
</g>
</svg>